<svg xmlns="http://www.w3.org/2000/svg" xmlns:xlink="http://www.w3.org/1999/xlink" version="1.1" width="256" height="256" viewBox="0 0 256 256" xml:space="preserve">

<defs>
</defs>
<g style="stroke: none; stroke-width: 0; stroke-dasharray: none; stroke-linecap: butt; stroke-linejoin: miter; stroke-miterlimit: 10; fill: none; fill-rule: nonzero; opacity: 1;" transform="translate(1.4065934065934016 1.4065934065934016) scale(2.81 2.81)" >
	<path d="M 59.199 75.801 H 30.801 C 13.79 75.801 0 62.011 0 45 v 0 c 0 -17.011 13.79 -30.801 30.801 -30.801 h 28.398 C 76.21 14.199 90 27.989 90 45 v 0 C 90 62.011 76.21 75.801 59.199 75.801 z" style="stroke: none; stroke-width: 1; stroke-dasharray: none; stroke-linecap: butt; stroke-linejoin: miter; stroke-miterlimit: 10; fill: rgb(249,207,28); fill-rule: nonzero; opacity: 1;" transform=" matrix(1 0 0 1 0 0) " stroke-linecap="round" />
	<path d="M 72.121 65.455 l -54.241 0 c -1.559 0 -2.823 -1.264 -2.823 -2.823 l 0 -35.263 c 0 -1.559 1.264 -2.823 2.823 -2.823 l 54.241 0 c 1.559 0 2.823 1.264 2.823 2.823 l 0 35.263 C 74.944 64.191 73.68 65.455 72.121 65.455 z" style="stroke: none; stroke-width: 1; stroke-dasharray: none; stroke-linecap: butt; stroke-linejoin: miter; stroke-miterlimit: 10; fill: rgb(16,181,20); fill-rule: nonzero; opacity: 1;" transform=" matrix(1 0 0 1 0 0) " stroke-linecap="round" />
	<path d="M 45 54.166 c -5.054 0 -9.167 -4.112 -9.167 -9.166 c 0 -5.054 4.112 -9.167 9.167 -9.167 c 5.054 0 9.166 4.112 9.166 9.167 C 54.166 50.054 50.054 54.166 45 54.166 z M 45 37.833 c -3.952 0 -7.167 3.215 -7.167 7.167 c 0 3.951 3.215 7.166 7.167 7.166 c 3.951 0 7.166 -3.215 7.166 -7.166 C 52.166 41.048 48.951 37.833 45 37.833 z" style="stroke: none; stroke-width: 1; stroke-dasharray: none; stroke-linecap: butt; stroke-linejoin: miter; stroke-miterlimit: 10; fill: rgb(255,255,255); fill-rule: nonzero; opacity: 1;" transform=" matrix(1 0 0 1 0 0) " stroke-linecap="round" />
	<path d="M 45 66.454 c -0.552 0 -1 -0.447 -1 -1 V 53.166 c 0 -0.553 0.448 -1 1 -1 s 1 0.447 1 1 v 12.288 C 46 66.007 45.552 66.454 45 66.454 z" style="stroke: none; stroke-width: 1; stroke-dasharray: none; stroke-linecap: butt; stroke-linejoin: miter; stroke-miterlimit: 10; fill: rgb(255,255,255); fill-rule: nonzero; opacity: 1;" transform=" matrix(1 0 0 1 0 0) " stroke-linecap="round" />
	<path d="M 74.943 55.57 h -8.781 c -0.553 0 -1 -0.447 -1 -1 V 35.43 c 0 -0.552 0.447 -1 1 -1 h 8.781 c 0.553 0 1 0.448 1 1 V 54.57 C 75.943 55.123 75.496 55.57 74.943 55.57 z M 67.162 53.57 h 6.781 V 36.43 h -6.781 V 53.57 z" style="stroke: none; stroke-width: 1; stroke-dasharray: none; stroke-linecap: butt; stroke-linejoin: miter; stroke-miterlimit: 10; fill: rgb(255,255,255); fill-rule: nonzero; opacity: 1;" transform=" matrix(1 0 0 1 0 0) " stroke-linecap="round" />
	<path d="M 23.838 55.57 h -8.782 c -0.552 0 -1 -0.447 -1 -1 V 35.43 c 0 -0.552 0.448 -1 1 -1 h 8.782 c 0.552 0 1 0.448 1 1 V 54.57 C 24.838 55.123 24.391 55.57 23.838 55.57 z M 16.057 53.57 h 6.782 V 36.43 h -6.782 V 53.57 z" style="stroke: none; stroke-width: 1; stroke-dasharray: none; stroke-linecap: butt; stroke-linejoin: miter; stroke-miterlimit: 10; fill: rgb(255,255,255); fill-rule: nonzero; opacity: 1;" transform=" matrix(1 0 0 1 0 0) " stroke-linecap="round" />
	<path d="M 45 37.833 c -0.552 0 -1 -0.448 -1 -1 V 24.545 c 0 -0.552 0.448 -1 1 -1 s 1 0.448 1 1 v 12.288 C 46 37.386 45.552 37.833 45 37.833 z" style="stroke: none; stroke-width: 1; stroke-dasharray: none; stroke-linecap: butt; stroke-linejoin: miter; stroke-miterlimit: 10; fill: rgb(255,255,255); fill-rule: nonzero; opacity: 1;" transform=" matrix(1 0 0 1 0 0) " stroke-linecap="round" />
	<path d="M 72.121 66.454 H 17.879 c -2.108 0 -3.823 -1.715 -3.823 -3.822 V 27.368 c 0 -2.108 1.715 -3.823 3.823 -3.823 h 54.242 c 2.107 0 3.822 1.715 3.822 3.823 v 35.264 C 75.943 64.739 74.229 66.454 72.121 66.454 z M 17.879 25.545 c -1.005 0 -1.823 0.818 -1.823 1.823 v 35.264 c 0 1.005 0.818 1.822 1.823 1.822 h 54.242 c 1.005 0 1.822 -0.817 1.822 -1.822 V 27.368 c 0 -1.005 -0.817 -1.823 -1.822 -1.823 H 17.879 z" style="stroke: none; stroke-width: 1; stroke-dasharray: none; stroke-linecap: butt; stroke-linejoin: miter; stroke-miterlimit: 10; fill: rgb(255,255,255); fill-rule: nonzero; opacity: 1;" transform=" matrix(1 0 0 1 0 0) " stroke-linecap="round" />
</g>
</svg>