<svg xmlns="http://www.w3.org/2000/svg" xmlns:xlink="http://www.w3.org/1999/xlink" version="1.1" width="256" height="256" viewBox="0 0 256 256" xml:space="preserve">

<defs>
</defs>
<g style="stroke: none; stroke-width: 0; stroke-dasharray: none; stroke-linecap: butt; stroke-linejoin: miter; stroke-miterlimit: 10; fill: none; fill-rule: nonzero; opacity: 1;" transform="translate(1.4065934065934016 1.4065934065934016) scale(2.81 2.81)" >
	<path d="M 65.552 77.356 H 24.448 c -4.117 0 -7.455 -3.338 -7.455 -7.455 V 56.774 c 0 -11.074 8.977 -20.051 20.051 -20.051 h 15.913 c 11.074 0 20.051 8.977 20.051 20.051 V 69.9 C 73.007 74.018 69.669 77.356 65.552 77.356 z" style="stroke: none; stroke-width: 1; stroke-dasharray: none; stroke-linecap: butt; stroke-linejoin: miter; stroke-miterlimit: 10; fill: rgb(189,221,249); fill-rule: nonzero; opacity: 1;" transform=" matrix(1 0 0 1 0 0) " stroke-linecap="round" />
	<path d="M 76.691 68.6 h -3.684 V 55.753 h 3.684 c 1.691 0 3.062 1.371 3.062 3.062 v 6.723 C 79.753 67.229 78.382 68.6 76.691 68.6 z" style="stroke: none; stroke-width: 1; stroke-dasharray: none; stroke-linecap: butt; stroke-linejoin: miter; stroke-miterlimit: 10; fill: rgb(138,182,220); fill-rule: nonzero; opacity: 1;" transform=" matrix(1 0 0 1 0 0) " stroke-linecap="round" />
	<path d="M 16.993 68.6 h -3.684 c -1.691 0 -3.062 -1.371 -3.062 -3.062 v -6.723 c 0 -1.691 1.371 -3.062 3.062 -3.062 h 3.684 V 68.6 z" style="stroke: none; stroke-width: 1; stroke-dasharray: none; stroke-linecap: butt; stroke-linejoin: miter; stroke-miterlimit: 10; fill: rgb(138,182,220); fill-rule: nonzero; opacity: 1;" transform=" matrix(1 0 0 1 0 0) " stroke-linecap="round" />
	<path d="M 62.156 70.289 H 27.844 c -2.011 0 -3.642 -1.63 -3.642 -3.642 v -7.416 c 0 -4.928 3.995 -8.922 8.922 -8.922 h 23.75 c 4.928 0 8.922 3.995 8.922 8.922 v 7.416 C 65.797 68.659 64.167 70.289 62.156 70.289 z" style="stroke: none; stroke-width: 1; stroke-dasharray: none; stroke-linecap: butt; stroke-linejoin: miter; stroke-miterlimit: 10; fill: rgb(31,137,189); fill-rule: nonzero; opacity: 1;" transform=" matrix(1 0 0 1 0 0) " stroke-linecap="round" />
	<path d="M 55.199 85.201 H 34.801 c -4.333 0 -7.846 -3.513 -7.846 -7.846 v 0 h 36.09 v 0 C 63.045 81.689 59.532 85.201 55.199 85.201 z" style="stroke: none; stroke-width: 1; stroke-dasharray: none; stroke-linecap: butt; stroke-linejoin: miter; stroke-miterlimit: 10; fill: rgb(138,182,220); fill-rule: nonzero; opacity: 1;" transform=" matrix(1 0 0 1 0 0) " stroke-linecap="round" />
	<path d="M 52.846 65.352 H 37.054 c -0.565 0 -1.023 -0.457 -1.023 -1.023 c 0 -0.565 0.458 -1.023 1.023 -1.023 h 15.792 c 0.565 0 1.023 0.457 1.023 1.023 C 53.869 64.895 53.412 65.352 52.846 65.352 z" style="stroke: none; stroke-width: 1; stroke-dasharray: none; stroke-linecap: butt; stroke-linejoin: miter; stroke-miterlimit: 10; fill: rgb(235,246,255); fill-rule: nonzero; opacity: 1;" transform=" matrix(1 0 0 1 0 0) " stroke-linecap="round" />
	<path d="M 34.478 60.824 c -0.565 0 -1.023 -0.457 -1.023 -1.023 v -3.388 c 0 -0.565 0.458 -1.023 1.023 -1.023 c 0.565 0 1.023 0.457 1.023 1.023 v 3.388 C 35.501 60.367 35.043 60.824 34.478 60.824 z" style="stroke: none; stroke-width: 1; stroke-dasharray: none; stroke-linecap: butt; stroke-linejoin: miter; stroke-miterlimit: 10; fill: rgb(235,246,255); fill-rule: nonzero; opacity: 1;" transform=" matrix(1 0 0 1 0 0) " stroke-linecap="round" />
	<path d="M 55.422 60.824 c -0.565 0 -1.023 -0.457 -1.023 -1.023 v -3.388 c 0 -0.565 0.457 -1.023 1.023 -1.023 s 1.023 0.457 1.023 1.023 v 3.388 C 56.445 60.367 55.987 60.824 55.422 60.824 z" style="stroke: none; stroke-width: 1; stroke-dasharray: none; stroke-linecap: butt; stroke-linejoin: miter; stroke-miterlimit: 10; fill: rgb(235,246,255); fill-rule: nonzero; opacity: 1;" transform=" matrix(1 0 0 1 0 0) " stroke-linecap="round" />
	<path d="M 51.244 8.488 v 21.633 c 0 1.485 1.204 2.689 2.689 2.689 h 5.896 v 7.25 l 8.223 -7.25 h 19.259 c 1.485 0 2.689 -1.204 2.689 -2.689 V 8.488 c 0 -1.485 -1.204 -2.689 -2.689 -2.689 H 53.933 C 52.448 5.799 51.244 7.003 51.244 8.488 z" style="stroke: none; stroke-width: 1; stroke-dasharray: none; stroke-linecap: butt; stroke-linejoin: miter; stroke-miterlimit: 10; fill: rgb(239,191,55); fill-rule: nonzero; opacity: 1;" transform=" matrix(1 0 0 1 0 0) " stroke-linecap="round" />
	<path d="M 38.756 15.961 v 21.633 c 0 1.485 -1.204 2.689 -2.689 2.689 h -5.896 v 7.25 l -8.223 -7.25 H 2.689 C 1.204 40.283 0 39.079 0 37.594 V 15.961 c 0 -1.485 1.204 -2.689 2.689 -2.689 h 33.378 C 37.552 13.272 38.756 14.476 38.756 15.961 z" style="stroke: none; stroke-width: 1; stroke-dasharray: none; stroke-linecap: butt; stroke-linejoin: miter; stroke-miterlimit: 10; fill: rgb(163,229,52); fill-rule: nonzero; opacity: 1;" transform=" matrix(1 0 0 1 0 0) " stroke-linecap="round" />
	<path d="M 62.838 20.578 h -3.261 c -0.565 0 -1.023 -0.458 -1.023 -1.023 c 0 -0.565 0.457 -1.023 1.023 -1.023 h 3.261 c 0.565 0 1.023 0.458 1.023 1.023 C 63.861 20.12 63.403 20.578 62.838 20.578 z" style="stroke: none; stroke-width: 1; stroke-dasharray: none; stroke-linecap: butt; stroke-linejoin: miter; stroke-miterlimit: 10; fill: rgb(235,246,255); fill-rule: nonzero; opacity: 1;" transform=" matrix(1 0 0 1 0 0) " stroke-linecap="round" />
	<path d="M 72.545 20.578 h -3.261 c -0.565 0 -1.023 -0.458 -1.023 -1.023 c 0 -0.565 0.457 -1.023 1.023 -1.023 h 3.261 c 0.565 0 1.023 0.458 1.023 1.023 C 73.567 20.12 73.11 20.578 72.545 20.578 z" style="stroke: none; stroke-width: 1; stroke-dasharray: none; stroke-linecap: butt; stroke-linejoin: miter; stroke-miterlimit: 10; fill: rgb(235,246,255); fill-rule: nonzero; opacity: 1;" transform=" matrix(1 0 0 1 0 0) " stroke-linecap="round" />
	<path d="M 82.252 20.578 h -3.261 c -0.565 0 -1.023 -0.458 -1.023 -1.023 c 0 -0.565 0.457 -1.023 1.023 -1.023 h 3.261 c 0.565 0 1.023 0.458 1.023 1.023 C 83.274 20.12 82.817 20.578 82.252 20.578 z" style="stroke: none; stroke-width: 1; stroke-dasharray: none; stroke-linecap: butt; stroke-linejoin: miter; stroke-miterlimit: 10; fill: rgb(235,246,255); fill-rule: nonzero; opacity: 1;" transform=" matrix(1 0 0 1 0 0) " stroke-linecap="round" />
	<path d="M 30.423 28.051 h -3.261 c -0.565 0 -1.023 -0.458 -1.023 -1.023 c 0 -0.565 0.458 -1.023 1.023 -1.023 h 3.261 c 0.565 0 1.023 0.458 1.023 1.023 C 31.445 27.593 30.987 28.051 30.423 28.051 z" style="stroke: none; stroke-width: 1; stroke-dasharray: none; stroke-linecap: butt; stroke-linejoin: miter; stroke-miterlimit: 10; fill: rgb(235,246,255); fill-rule: nonzero; opacity: 1;" transform=" matrix(1 0 0 1 0 0) " stroke-linecap="round" />
	<path d="M 20.716 28.051 h -3.261 c -0.565 0 -1.023 -0.458 -1.023 -1.023 c 0 -0.565 0.458 -1.023 1.023 -1.023 h 3.261 c 0.565 0 1.023 0.458 1.023 1.023 C 21.739 27.593 21.281 28.051 20.716 28.051 z" style="stroke: none; stroke-width: 1; stroke-dasharray: none; stroke-linecap: butt; stroke-linejoin: miter; stroke-miterlimit: 10; fill: rgb(235,246,255); fill-rule: nonzero; opacity: 1;" transform=" matrix(1 0 0 1 0 0) " stroke-linecap="round" />
	<path d="M 11.009 28.051 H 7.748 c -0.565 0 -1.023 -0.458 -1.023 -1.023 c 0 -0.565 0.458 -1.023 1.023 -1.023 h 3.261 c 0.565 0 1.023 0.458 1.023 1.023 C 12.032 27.593 11.574 28.051 11.009 28.051 z" style="stroke: none; stroke-width: 1; stroke-dasharray: none; stroke-linecap: butt; stroke-linejoin: miter; stroke-miterlimit: 10; fill: rgb(235,246,255); fill-rule: nonzero; opacity: 1;" transform=" matrix(1 0 0 1 0 0) " stroke-linecap="round" />
	<path d="M 78.73 59.837 c -0.565 0 -1.023 -0.457 -1.023 -1.023 V 41.162 c 0 -0.565 0.457 -1.023 1.023 -1.023 c 0.565 0 1.023 0.458 1.023 1.023 v 17.652 C 79.753 59.38 79.295 59.837 78.73 59.837 z" style="stroke: none; stroke-width: 1; stroke-dasharray: none; stroke-linecap: butt; stroke-linejoin: miter; stroke-miterlimit: 10; fill: rgb(138,182,220); fill-rule: nonzero; opacity: 1;" transform=" matrix(1 0 0 1 0 0) " stroke-linecap="round" />
</g>
</svg>