<svg xmlns="http://www.w3.org/2000/svg" xmlns:xlink="http://www.w3.org/1999/xlink" version="1.1" width="256" height="256" viewBox="0 0 256 256" xml:space="preserve">

<defs>
</defs>
<g style="stroke: none; stroke-width: 0; stroke-dasharray: none; stroke-linecap: butt; stroke-linejoin: miter; stroke-miterlimit: 10; fill: none; fill-rule: nonzero; opacity: 1;" transform="translate(1.4065934065934016 1.4065934065934016) scale(2.81 2.81)" >
	<path d="M 76.53 60.751 V 20.986 c 0 -1.649 -1.337 -2.986 -2.986 -2.986 H 3.647 c -1.649 0 -2.986 1.337 -2.986 2.986 v 43.064 C 0.661 68.441 4.22 72 8.61 72 h 74.155 C 77.847 72 76.53 66.964 76.53 60.751 z" style="stroke: none; stroke-width: 1; stroke-dasharray: none; stroke-linecap: butt; stroke-linejoin: miter; stroke-miterlimit: 10; fill: rgb(231,236,246); fill-rule: nonzero; opacity: 1;" transform=" matrix(1 0 0 1 0 0) " stroke-linecap="round" />
	<path d="M 23.865 62.048 H 7.409 c -0.698 0 -1.263 -0.566 -1.263 -1.263 V 48.999 c 0 -0.698 0.566 -1.263 1.263 -1.263 h 16.457 c 0.698 0 1.263 0.566 1.263 1.263 v 11.786 C 25.128 61.483 24.563 62.048 23.865 62.048 z" style="stroke: none; stroke-width: 1; stroke-dasharray: none; stroke-linecap: butt; stroke-linejoin: miter; stroke-miterlimit: 10; fill: rgb(250,211,88); fill-rule: nonzero; opacity: 1;" transform=" matrix(1 0 0 1 0 0) " stroke-linecap="round" />
	<path d="M 82.765 72 c -3.443 0 -6.235 -5.291 -6.235 -11.818 V 24.088 h 3.383 c 1.46 0 2.644 1.776 2.644 3.967 v 1.089 h 3.799 c 1.46 0 2.644 1.776 2.644 3.967 v 27.071 C 89 66.709 86.209 72 82.765 72" style="stroke: none; stroke-width: 1; stroke-dasharray: none; stroke-linecap: butt; stroke-linejoin: miter; stroke-miterlimit: 10; fill: rgb(162,177,200); fill-rule: nonzero; opacity: 1;" transform=" matrix(1 0 0 1 0 0) " stroke-linecap="round" />
	<path d="M 86.377 28.414 h -2.769 v -1.703 c 0 -1.998 -1.625 -3.624 -3.623 -3.624 h -2.356 v -2.209 c 0 -1.998 -1.625 -3.624 -3.623 -3.624 H 3.623 C 1.625 17.255 0 18.88 0 20.878 v 43.512 c 0 4.606 3.748 8.354 8.354 8.354 h 74.46 c 3.962 0 7.186 -3.954 7.186 -8.814 V 32.037 C 90 30.04 88.375 28.414 86.377 28.414 z M 8.354 70.745 C 4.851 70.745 2 67.895 2 64.391 V 20.878 c 0 -0.895 0.728 -1.624 1.623 -1.624 h 70.383 c 0.895 0 1.623 0.729 1.623 1.624 v 43.052 c 0 2.742 1.026 5.196 2.633 6.814 H 8.354 z M 88 63.931 c 0 3.758 -2.326 6.814 -5.186 6.814 s -5.186 -3.057 -5.186 -6.814 V 25.087 h 2.356 c 0.895 0 1.623 0.729 1.623 1.624 v 37.726 c 0 0.553 0.447 1 1 1 s 1 -0.447 1 -1 V 30.414 h 2.769 c 0.895 0 1.623 0.728 1.623 1.623 V 63.931 z" style="stroke: none; stroke-width: 1; stroke-dasharray: none; stroke-linecap: butt; stroke-linejoin: miter; stroke-miterlimit: 10; fill: rgb(41,49,63); fill-rule: nonzero; opacity: 1;" transform=" matrix(1 0 0 1 0 0) " stroke-linecap="round" />
	<path d="M 23.865 63.048 H 7.409 c -1.248 0 -2.264 -1.015 -2.264 -2.263 V 48.999 c 0 -1.248 1.016 -2.264 2.264 -2.264 h 16.457 c 1.248 0 2.263 1.016 2.263 2.264 v 11.786 C 26.128 62.033 25.113 63.048 23.865 63.048 z M 7.409 48.735 c -0.146 0 -0.264 0.118 -0.264 0.264 v 11.786 c 0 0.145 0.118 0.263 0.264 0.263 h 16.457 c 0.145 0 0.263 -0.118 0.263 -0.263 V 48.999 c 0 -0.146 -0.118 -0.264 -0.263 -0.264 H 7.409 z" style="stroke: none; stroke-width: 1; stroke-dasharray: none; stroke-linecap: butt; stroke-linejoin: miter; stroke-miterlimit: 10; fill: rgb(41,49,63); fill-rule: nonzero; opacity: 1;" transform=" matrix(1 0 0 1 0 0) " stroke-linecap="round" />
	<path d="M 70.028 48.735 h -39.14 c -0.552 0 -1 -0.447 -1 -1 s 0.448 -1 1 -1 h 39.14 c 0.553 0 1 0.447 1 1 S 70.581 48.735 70.028 48.735 z" style="stroke: none; stroke-width: 1; stroke-dasharray: none; stroke-linecap: butt; stroke-linejoin: miter; stroke-miterlimit: 10; fill: rgb(41,49,63); fill-rule: nonzero; opacity: 1;" transform=" matrix(1 0 0 1 0 0) " stroke-linecap="round" />
	<path d="M 70.028 55.892 h -39.14 c -0.552 0 -1 -0.447 -1 -1 s 0.448 -1 1 -1 h 39.14 c 0.553 0 1 0.447 1 1 S 70.581 55.892 70.028 55.892 z" style="stroke: none; stroke-width: 1; stroke-dasharray: none; stroke-linecap: butt; stroke-linejoin: miter; stroke-miterlimit: 10; fill: rgb(41,49,63); fill-rule: nonzero; opacity: 1;" transform=" matrix(1 0 0 1 0 0) " stroke-linecap="round" />
	<path d="M 58.718 63.048 H 30.889 c -0.552 0 -1 -0.447 -1 -1 s 0.448 -1 1 -1 h 27.829 c 0.553 0 1 0.447 1 1 S 59.271 63.048 58.718 63.048 z" style="stroke: none; stroke-width: 1; stroke-dasharray: none; stroke-linecap: butt; stroke-linejoin: miter; stroke-miterlimit: 10; fill: rgb(41,49,63); fill-rule: nonzero; opacity: 1;" transform=" matrix(1 0 0 1 0 0) " stroke-linecap="round" />
	<path d="M 26.022 38.041 c -0.31 0 -0.61 -0.145 -0.803 -0.404 l -5.441 -7.327 v 6.731 c 0 0.552 -0.448 1 -1 1 s -1 -0.448 -1 -1 v -9.755 c 0 -0.431 0.276 -0.814 0.686 -0.949 c 0.409 -0.134 0.859 0.007 1.117 0.353 l 5.441 7.327 v -6.731 c 0 -0.552 0.448 -1 1 -1 s 1 0.448 1 1 v 9.755 c 0 0.431 -0.276 0.814 -0.686 0.949 C 26.233 38.024 26.127 38.041 26.022 38.041 z" style="stroke: none; stroke-width: 1; stroke-dasharray: none; stroke-linecap: butt; stroke-linejoin: miter; stroke-miterlimit: 10; fill: rgb(41,49,63); fill-rule: nonzero; opacity: 1;" transform=" matrix(1 0 0 1 0 0) " stroke-linecap="round" />
	<path d="M 35.179 33.164 c 0.552 0 1 -0.448 1 -1 s -0.448 -1 -1 -1 h -3.92 v -2.877 h 3.92 c 0.552 0 1 -0.448 1 -1 s -0.448 -1 -1 -1 h -4.92 c -0.552 0 -1 0.448 -1 1 v 9.755 c 0 0.552 0.448 1 1 1 h 4.92 c 0.552 0 1 -0.448 1 -1 s -0.448 -1 -1 -1 h -3.92 v -2.877 H 35.179 z" style="stroke: none; stroke-width: 1; stroke-dasharray: none; stroke-linecap: butt; stroke-linejoin: miter; stroke-miterlimit: 10; fill: rgb(41,49,63); fill-rule: nonzero; opacity: 1;" transform=" matrix(1 0 0 1 0 0) " stroke-linecap="round" />
	<path d="M 47.521 38.041 c -0.43 0 -0.814 -0.275 -0.95 -0.687 l -2.266 -6.874 l -2.266 6.874 c -0.141 0.426 -0.56 0.697 -0.994 0.686 c -0.448 -0.02 -0.828 -0.335 -0.929 -0.772 l -2.275 -9.755 c -0.125 -0.538 0.208 -1.076 0.747 -1.201 c 0.535 -0.127 1.075 0.209 1.201 0.747 l 1.467 6.287 l 2.101 -6.373 c 0.135 -0.41 0.518 -0.687 0.95 -0.687 s 0.814 0.277 0.95 0.687 l 2.101 6.373 l 1.467 -6.287 c 0.125 -0.538 0.657 -0.874 1.201 -0.747 c 0.537 0.125 0.872 0.663 0.746 1.201 l -2.275 9.755 c -0.102 0.437 -0.481 0.752 -0.929 0.772 C 47.551 38.041 47.536 38.041 47.521 38.041 z" style="stroke: none; stroke-width: 1; stroke-dasharray: none; stroke-linecap: butt; stroke-linejoin: miter; stroke-miterlimit: 10; fill: rgb(41,49,63); fill-rule: nonzero; opacity: 1;" transform=" matrix(1 0 0 1 0 0) " stroke-linecap="round" />
	<path d="M 56.279 38.041 h -3.64 c -0.553 0 -1 -0.448 -1 -1 s 0.447 -1 1 -1 h 3.64 c 0.793 0 1.438 -0.646 1.438 -1.438 c 0 -0.793 -0.646 -1.439 -1.438 -1.439 h -1.201 c -1.896 0 -3.438 -1.542 -3.438 -3.438 c 0 -1.896 1.543 -3.439 3.438 -3.439 h 2.811 c 0.553 0 1 0.448 1 1 s -0.447 1 -1 1 h -2.811 c -0.793 0 -1.438 0.646 -1.438 1.439 c 0 0.793 0.646 1.438 1.438 1.438 h 1.201 c 1.896 0 3.438 1.542 3.438 3.439 C 59.718 36.499 58.175 38.041 56.279 38.041 z" style="stroke: none; stroke-width: 1; stroke-dasharray: none; stroke-linecap: butt; stroke-linejoin: miter; stroke-miterlimit: 10; fill: rgb(41,49,63); fill-rule: nonzero; opacity: 1;" transform=" matrix(1 0 0 1 0 0) " stroke-linecap="round" />
	<path d="M 14.455 33.164 H 6.9 c -0.552 0 -1 -0.448 -1 -1 s 0.448 -1 1 -1 h 7.555 c 0.552 0 1 0.448 1 1 S 15.007 33.164 14.455 33.164 z" style="stroke: none; stroke-width: 1; stroke-dasharray: none; stroke-linecap: butt; stroke-linejoin: miter; stroke-miterlimit: 10; fill: rgb(41,49,63); fill-rule: nonzero; opacity: 1;" transform=" matrix(1 0 0 1 0 0) " stroke-linecap="round" />
	<path d="M 70.028 33.164 h -7.555 c -0.553 0 -1 -0.448 -1 -1 s 0.447 -1 1 -1 h 7.555 c 0.553 0 1 0.448 1 1 S 70.581 33.164 70.028 33.164 z" style="stroke: none; stroke-width: 1; stroke-dasharray: none; stroke-linecap: butt; stroke-linejoin: miter; stroke-miterlimit: 10; fill: rgb(41,49,63); fill-rule: nonzero; opacity: 1;" transform=" matrix(1 0 0 1 0 0) " stroke-linecap="round" />
</g>
</svg>